<?xml version="1.0" encoding="UTF-8" standalone="no"?>
<!DOCTYPE svg PUBLIC "-//W3C//DTD SVG 1.1//EN" "http://www.w3.org/Graphics/SVG/1.1/DTD/svg11.dtd">
<svg width="100%" height="100%" viewBox="0 0 359 42" version="1.1" xmlns="http://www.w3.org/2000/svg" xmlns:xlink="http://www.w3.org/1999/xlink" xml:space="preserve" xmlns:serif="http://www.serif.com/" style="fill-rule:evenodd;clip-rule:evenodd;stroke-linejoin:round;stroke-miterlimit:2;">
    <g transform="matrix(1,0,0,1,-49694,-16129)">
        <g transform="matrix(1,0,0,1,39.0637,-771.47)">
            <g transform="matrix(0.510597,0,0,0.561648,49341.6,13102)">
                <g transform="matrix(0.836184,0,0,0.760098,-674.263,3219.62)">
                    <path d="M2242.61,4715.56L2226.27,4715.56L2226.27,4732.3L2216.13,4732.3L2216.13,4690.27L2244.25,4690.27L2244.25,4698.09L2226.27,4698.09L2226.27,4707.76L2242.61,4707.76L2242.61,4715.56Z" style="fill:rgb(152,152,152);fill-rule:nonzero;"/>
                    <path d="M2274.53,4714.49L2258.6,4714.49L2258.6,4724.51L2277.42,4724.51L2277.42,4732.3L2248.47,4732.3L2248.47,4690.27L2277.48,4690.27L2277.48,4698.09L2258.6,4698.09L2258.6,4706.95L2274.53,4706.95L2274.53,4714.49Z" style="fill:rgb(152,152,152);fill-rule:nonzero;"/>
                    <path d="M2315.96,4727.11C2314.4,4728.84 2312.12,4730.23 2309.12,4731.29C2306.12,4732.35 2302.83,4732.88 2299.25,4732.88C2293.74,4732.88 2289.35,4731.19 2286.05,4727.83C2282.76,4724.46 2281,4719.77 2280.77,4713.77L2280.74,4710.13C2280.74,4705.99 2281.47,4702.38 2282.94,4699.29C2284.4,4696.2 2286.49,4693.82 2289.22,4692.16C2291.94,4690.49 2295.09,4689.66 2298.67,4689.66C2303.9,4689.66 2307.97,4690.86 2310.87,4693.26C2313.76,4695.65 2315.45,4699.23 2315.93,4703.98L2306.18,4703.98C2305.83,4701.63 2305.08,4699.96 2303.92,4698.96C2302.77,4697.96 2301.13,4697.46 2299.02,4697.46C2296.47,4697.46 2294.51,4698.53 2293.13,4700.69C2291.74,4702.85 2291.04,4705.93 2291.02,4709.93L2291.02,4712.47C2291.02,4716.66 2291.74,4719.82 2293.17,4721.92C2294.6,4724.03 2296.86,4725.08 2299.94,4725.08C2302.58,4725.08 2304.54,4724.5 2305.83,4723.32L2305.83,4716.8L2298.78,4716.8L2298.78,4709.84L2315.96,4709.84L2315.96,4727.11Z" style="fill:rgb(152,152,152);fill-rule:nonzero;"/>
                    <path d="M2336.03,4732.88C2331.58,4732.88 2327.98,4731.48 2325.21,4728.68C2322.45,4725.88 2321.07,4722.15 2321.07,4717.49L2321.07,4716.63C2321.07,4713.51 2321.67,4710.72 2322.88,4708.27C2324.08,4705.81 2325.77,4703.9 2327.94,4702.54C2330.12,4701.17 2332.54,4700.49 2335.22,4700.49C2339.47,4700.49 2342.76,4701.85 2345.08,4704.56C2347.39,4707.27 2348.55,4711.11 2348.55,4716.08L2348.55,4718.91L2328.14,4718.91C2328.36,4721.48 2329.22,4723.53 2330.73,4725.03C2332.24,4726.53 2334.14,4727.28 2336.43,4727.28C2339.64,4727.28 2342.26,4725.98 2344.28,4723.38L2348.06,4726.99C2346.81,4728.86 2345.14,4730.31 2343.05,4731.33C2340.97,4732.36 2338.62,4732.88 2336.03,4732.88ZM2335.19,4706.12C2333.26,4706.12 2331.71,4706.79 2330.53,4708.14C2329.34,4709.48 2328.59,4711.36 2328.26,4713.77L2341.63,4713.77L2341.63,4713.25C2341.47,4710.9 2340.85,4709.12 2339.75,4707.92C2338.65,4706.72 2337.13,4706.12 2335.19,4706.12Z" style="fill:rgb(152,152,152);fill-rule:nonzero;"/>
                    <path d="M2365.21,4711.34L2371.16,4701.07L2378.95,4701.07L2369.4,4716.45L2379.27,4732.3L2371.53,4732.3L2365.3,4721.62L2359.09,4732.3L2351.3,4732.3L2361.17,4716.45L2351.64,4701.07L2359.38,4701.07L2365.21,4711.34Z" style="fill:rgb(152,152,152);fill-rule:nonzero;"/>
                </g>
                <g transform="matrix(0.600405,0,0,1.01662,-24931.9,-10442.1)">
                    <path d="M43414.9,16925.7C43414.9,16925.3 43414.3,16925 43413.7,16925L43411.2,16925C43410.5,16925 43410,16925.3 43410,16925.7L43410,16996.3C43410,16996.6 43410.5,16996.9 43411.2,16996.9L43413.7,16996.9C43414.3,16996.9 43414.9,16996.6 43414.9,16996.3L43414.9,16925.7Z" style="fill:rgb(152,152,152);"/>
                </g>
                <g id="SmartDeFi" transform="matrix(0.315589,0,0,0.285619,614.119,6784.22)">
                    <path d="M1.44,90.21C30.6,91.81 50.347,92.61 60.68,92.61C60.87,92.625 61.061,92.632 61.252,92.632C65.339,92.632 68.702,89.269 68.702,85.182C68.702,84.991 68.695,84.8 68.68,84.61L68.68,70.26L31.93,70.26C20.763,70.26 12.647,67.73 7.58,62.67C2.513,57.61 -0.013,49.493 0,38.32L0,33.53C0,22.35 2.527,14.233 7.58,9.18C12.633,4.127 20.75,1.6 31.93,1.6L88,1.6L88,24L38.32,24C31.927,24 28.733,27.193 28.74,33.58L28.74,36.77C28.74,43.163 31.933,46.357 38.32,46.35L67.06,46.35C77.487,46.35 85.153,48.8 90.06,53.7C94.967,58.6 97.413,66.267 97.4,76.7L97.4,84.7C97.4,95.133 94.953,102.8 90.06,107.7C85.167,112.6 77.5,115.047 67.06,115.04C61.633,115.04 55.887,114.933 49.82,114.72L35.13,114C24.27,113.46 13.04,112.713 1.44,111.76L1.44,90.21Z" style="fill:rgb(57,142,246);fill-opacity:0.8;fill-rule:nonzero;"/>
                    <path d="M162.39,27.14C171.01,27.14 177.677,30.333 182.39,36.72C187.247,33.442 192.613,30.989 198.27,29.46C203.231,28.026 208.357,27.246 213.52,27.14L215.12,27.14C222.36,27.14 228.16,29.323 232.52,33.69C236.88,38.057 239.04,43.857 239,51.09L239,113.37L211.09,113.37L211.09,55.88C211.091,55.836 211.092,55.792 211.092,55.748C211.092,52.758 208.631,50.298 205.642,50.298C205.594,50.298 205.547,50.299 205.5,50.3L204.7,50.3C199.907,50.3 193.787,51.363 186.34,53.49L186.34,113.37L158.4,113.37L158.4,55.88C158.401,55.836 158.402,55.792 158.402,55.748C158.402,52.758 155.941,50.298 152.952,50.298C152.904,50.298 152.857,50.299 152.81,50.3L152,50.3C147.207,50.3 141.087,51.363 133.64,53.49L133.64,113.37L105.7,113.37L105.7,28.74L130.45,28.74L132.05,36.74C136.796,33.565 141.99,31.118 147.46,29.48C151.775,28.096 156.261,27.315 160.79,27.16L162.39,27.14Z" style="fill:rgb(57,142,246);fill-opacity:0.8;fill-rule:nonzero;"/>
                    <path d="M254.2,30.34C271.693,28.326 289.282,27.258 306.89,27.14C314.13,27.14 319.93,29.323 324.29,33.69C328.65,38.057 330.833,43.857 330.84,51.09L330.84,113.37L306.09,113.37L304.49,105.37C299.749,108.55 294.558,111.001 289.09,112.64C284.774,114.039 280.284,114.833 275.75,115L270.16,115C262.92,115 257.12,112.82 252.76,108.46C248.4,104.1 246.217,98.28 246.21,91L246.21,83.83C246.21,76.59 248.393,70.787 252.76,66.42C257.127,62.053 262.927,59.873 270.16,59.88L302.9,59.88L302.9,53.49C302.901,53.45 302.901,53.409 302.901,53.369C302.901,50.368 300.432,47.899 297.431,47.899C297.391,47.899 297.35,47.899 297.31,47.9C290.39,47.9 282.753,48.233 274.4,48.9C266.047,49.567 259.313,50.033 254.2,50.3L254.2,30.34ZM283.74,92.61C290.247,92.471 296.7,91.397 302.9,89.42L302.9,79.84L279.75,79.84C279.699,79.839 279.649,79.838 279.598,79.838C276.614,79.838 274.158,82.294 274.158,85.278C274.158,85.325 274.159,85.373 274.16,85.42L274.16,87C274.159,87.047 274.158,87.095 274.158,87.142C274.158,90.132 276.618,92.592 279.608,92.592C279.655,92.592 279.703,92.591 279.75,92.59L283.74,92.61Z" style="fill:rgb(57,142,246);fill-opacity:0.8;fill-rule:nonzero;"/>
                    <path d="M389,51.89C381.819,51.998 374.742,53.631 368.24,56.68L368.24,113.37L340.26,113.37L340.26,28.74L365,28.74L366.59,39.12C375.75,31.12 385.33,27.12 395.33,27.12L402.52,27.12L402.52,51.89L389,51.89Z" style="fill:rgb(57,142,246);fill-opacity:0.8;fill-rule:nonzero;"/>
                    <path d="M472.15,113.37C462.071,114.43 451.945,114.974 441.81,115C434.57,115 428.767,112.82 424.4,108.46C420.033,104.1 417.853,98.28 417.86,91L417.86,50.3L408.28,50.3L408.28,28.74L417.86,28.74L421.05,9.58L445.8,9.58L445.8,28.74L465.8,28.74L465.8,50.3L445.8,50.3L445.8,87C445.799,87.04 445.799,87.081 445.799,87.121C445.799,90.122 448.268,92.591 451.269,92.591C451.309,92.591 451.35,92.591 451.39,92.59L472.15,92.59L472.15,113.37Z" style="fill:rgb(57,142,246);fill-opacity:0.8;fill-rule:nonzero;"/>
                    <path d="M544,1.6C556,1.6 565.127,4.713 571.38,10.94C577.633,17.167 580.747,26.293 580.72,38.32L580.72,76.64C580.72,88.64 577.607,97.77 571.38,104.03C565.153,110.29 556.027,113.403 544,113.37L481.72,113.37L481.72,1.6L544,1.6ZM552,38.32C552,28.74 547.203,23.967 537.61,24L510.47,24L510.47,91L537.61,91C547.203,91 552,86.213 552,76.64L552,38.32Z" style="fill:rgb(152,152,152);fill-rule:nonzero;"/>
                    <path d="M668.54,111.77C649.977,113.801 631.323,114.879 612.65,115C605.41,115 599.61,112.82 595.25,108.46C590.89,104.1 588.707,98.28 588.7,91L588.7,52.69C588.7,44.69 590.963,38.437 595.49,33.93C600.017,29.423 606.27,27.16 614.25,27.14L646.19,27.14C654.19,27.14 660.443,29.403 664.95,33.93C669.457,38.457 671.717,44.71 671.73,52.69L671.73,82.23L616.65,82.23L616.65,88.62C616.649,88.667 616.648,88.714 616.648,88.762C616.648,91.751 619.108,94.212 622.098,94.212C622.142,94.212 622.186,94.211 622.23,94.21C632.77,94.21 648.207,93.41 668.54,91.81L668.54,111.77ZM623,47.1C618.74,47.1 616.613,49.23 616.62,53.49L616.62,62.27L643.76,62.27L643.76,53.49C643.76,49.23 641.63,47.1 637.37,47.1L623,47.1Z" style="fill:rgb(152,152,152);fill-rule:nonzero;"/>
                    <path d="M708.46,113.37L679.72,113.37L679.72,1.6L768.33,1.6L768.33,24L708.46,24L708.46,50.3L755.56,50.3L755.56,72.65L708.46,72.65L708.46,113.37Z" style="fill:rgb(152,152,152);fill-rule:nonzero;"/>
                    <path d="M809.85,31.93L809.85,113.37L781.91,113.37L781.91,53.49L769.91,53.49L769.91,31.93L809.85,31.93ZM781.91,0L809.85,0L809.85,22.35L781.91,22.35L781.91,0Z" style="fill:rgb(152,152,152);fill-rule:nonzero;"/>
                    <path d="M829.92,96.68L829.92,99.44L824.59,99.44L824.59,113.34L821.28,113.34L821.28,99.44L816,99.44L816,96.68L829.92,96.68ZM847.92,113.34L847.31,103.54C847.25,102.26 847.25,100.67 847.19,98.89L847,98.89C846.58,100.36 846.08,102.32 845.59,103.89L842.59,113.14L839.16,113.14L836.16,103.65C835.86,102.36 835.37,100.4 835,98.93L834.82,98.93C834.82,100.46 834.75,102.05 834.69,103.58L834.08,113.38L830.9,113.38L832.12,96.72L837.12,96.72L840,104.87C840.37,106.16 840.67,107.38 841.1,109.1L841.16,109.1C841.59,107.57 841.96,106.16 842.33,104.93L845.21,96.72L849.98,96.72L851.27,113.38L847.92,113.34Z" style="fill:rgb(152,152,152);fill-rule:nonzero;"/>
                    <g id="underlay" transform="matrix(6.20583,0,0,6.23374,-308394,-100618)">
                        <path d="M49935.9,16150.2C49935.9,16145.1 49931.7,16141 49926.6,16141L49849.4,16141C49844.3,16141 49840.2,16145.1 49840.2,16150.2C49840.2,16155.3 49844.3,16159.4 49849.4,16159.4L49926.6,16159.4C49931.7,16159.4 49935.9,16155.3 49935.9,16150.2ZM49852.5,16154.8C49850.5,16155 49848.8,16155 49847.5,16155C49846.6,16155 49845.9,16154.8 49845.5,16154.4C49845.1,16154 49844.9,16153.3 49844.9,16152.5L49844.9,16148.1C49844.9,16147.1 49845.1,16146.4 49845.5,16146C49845.9,16145.6 49846.6,16145.4 49847.6,16145.4L49852.5,16145.4L49852.5,16147.3L49848.1,16147.3C49847.6,16147.3 49847.3,16147.5 49847.3,16148.1L49847.3,16152.5C49847.3,16152.6 49847.4,16152.8 49847.5,16153C49847.6,16153.1 49847.8,16153.1 49848,16153.1L49848.6,16153.1C49848.8,16153.1 49849.1,16153.1 49849.3,16153.1L49850.1,16153.1C49850.3,16153.1 49850.6,16153.1 49851,16153L49852.5,16152.9L49852.5,16154.8ZM49865.6,16145.4L49871.4,16145.4C49872.3,16145.4 49873,16145.6 49873.5,16146C49873.9,16146.4 49874.1,16147.1 49874.1,16148.1L49874.1,16149.3C49874.1,16150.1 49874,16150.7 49873.8,16151.1C49873.5,16151.5 49873,16151.8 49872.6,16151.9L49874.3,16154.9L49871.6,16154.9L49870,16152L49868.1,16152L49868.1,16154.9L49865.6,16154.9L49865.6,16145.4ZM49928,16145.4C49929.1,16145.4 49929.8,16145.6 49930.4,16146.2C49930.9,16146.7 49931.2,16147.5 49931.2,16148.5L49931.2,16151.8C49931.2,16152.8 49930.9,16153.6 49930.4,16154.1C49929.8,16154.6 49929.1,16154.9 49928,16154.9L49922.7,16154.9L49922.7,16145.4L49928,16145.4ZM49891.8,16154.9L49886.9,16154.9L49886.9,16153L49888.1,16153L49888.1,16147.3L49886.9,16147.3L49886.9,16145.4L49891.8,16145.4L49891.8,16147.3L49890.6,16147.3L49890.6,16153L49891.8,16153L49891.8,16154.9ZM49909.4,16154.9L49904.5,16154.9L49904.5,16153L49905.7,16153L49905.7,16147.3L49904.5,16147.3L49904.5,16145.4L49909.4,16145.4L49909.4,16147.3L49908.2,16147.3L49908.2,16153L49909.4,16153L49909.4,16154.9ZM49862.9,16154.9L49855.3,16154.9L49855.3,16145.4L49862.9,16145.4L49862.9,16147.3L49857.7,16147.3L49857.7,16149.1L49861.8,16149.1L49861.8,16151L49857.7,16151L49857.7,16153L49862.9,16153L49862.9,16154.9ZM49897.2,16154.9L49894.7,16154.9L49894.7,16145.4L49902.3,16145.4L49902.3,16147.3L49897.2,16147.3L49897.2,16149.5L49901.2,16149.5L49901.2,16151.4L49897.2,16151.4L49897.2,16154.9ZM49919.9,16154.9L49912.3,16154.9L49912.3,16145.4L49919.9,16145.4L49919.9,16147.3L49914.8,16147.3L49914.8,16149.1L49918.8,16149.1L49918.8,16151L49914.8,16151L49914.8,16153L49919.9,16153L49919.9,16154.9ZM49881.8,16154.9L49879.3,16154.9L49879.3,16147.3L49876.5,16147.3L49876.5,16145.4L49884.7,16145.4L49884.7,16147.3L49881.8,16147.3L49881.8,16154.9ZM49928.7,16148.5C49928.7,16147.7 49928.3,16147.3 49927.5,16147.3L49925.1,16147.3L49925.1,16153L49927.5,16153C49928.3,16153 49928.7,16152.6 49928.7,16151.8L49928.7,16148.5ZM49871.7,16148.1C49871.7,16147.5 49871.4,16147.3 49870.8,16147.3L49868.1,16147.3L49868.1,16150.1L49870.8,16150.1C49871.4,16150.1 49871.7,16149.9 49871.7,16149.3L49871.7,16148.1Z" style="fill:rgb(152,152,152);"/>
                    </g>
                </g>
            </g>
        </g>
    </g>
</svg>
