<?xml version="1.0" encoding="UTF-8" standalone="no"?>
<!DOCTYPE svg PUBLIC "-//W3C//DTD SVG 1.1//EN" "http://www.w3.org/Graphics/SVG/1.1/DTD/svg11.dtd">
<svg width="100%" height="100%" viewBox="0 0 414 42" version="1.1" xmlns="http://www.w3.org/2000/svg" xmlns:xlink="http://www.w3.org/1999/xlink" xml:space="preserve" xmlns:serif="http://www.serif.com/" style="fill-rule:evenodd;clip-rule:evenodd;stroke-linejoin:round;stroke-miterlimit:2;">
    <g transform="matrix(1,0,0,1,-49655,-16901)">
        <g transform="matrix(0.510597,0,0,0.561648,49341.6,13102)">
            <g transform="matrix(0.836184,0,0,0.760098,-674.263,3219.62)">
                <path d="M2242.61,4715.56L2226.27,4715.56L2226.27,4732.3L2216.13,4732.3L2216.13,4690.27L2244.25,4690.27L2244.25,4698.09L2226.27,4698.09L2226.27,4707.76L2242.61,4707.76L2242.61,4715.56Z" style="fill:white;fill-opacity:0.5;fill-rule:nonzero;"/>
                <path d="M2274.53,4714.49L2258.6,4714.49L2258.6,4724.51L2277.42,4724.51L2277.42,4732.3L2248.47,4732.3L2248.47,4690.27L2277.48,4690.27L2277.48,4698.09L2258.6,4698.09L2258.6,4706.95L2274.53,4706.95L2274.53,4714.49Z" style="fill:white;fill-opacity:0.5;fill-rule:nonzero;"/>
                <path d="M2315.96,4727.11C2314.4,4728.84 2312.12,4730.23 2309.12,4731.29C2306.12,4732.35 2302.83,4732.88 2299.25,4732.88C2293.74,4732.88 2289.35,4731.19 2286.05,4727.83C2282.76,4724.46 2281,4719.77 2280.77,4713.77L2280.74,4710.13C2280.74,4705.99 2281.47,4702.38 2282.94,4699.29C2284.4,4696.2 2286.49,4693.82 2289.22,4692.16C2291.94,4690.49 2295.09,4689.66 2298.67,4689.66C2303.9,4689.66 2307.97,4690.86 2310.87,4693.26C2313.76,4695.65 2315.45,4699.23 2315.93,4703.98L2306.18,4703.98C2305.83,4701.63 2305.08,4699.96 2303.92,4698.96C2302.77,4697.96 2301.13,4697.46 2299.02,4697.46C2296.47,4697.46 2294.51,4698.53 2293.13,4700.69C2291.74,4702.85 2291.04,4705.93 2291.02,4709.93L2291.02,4712.47C2291.02,4716.66 2291.74,4719.82 2293.17,4721.92C2294.6,4724.03 2296.86,4725.08 2299.94,4725.08C2302.58,4725.08 2304.54,4724.5 2305.83,4723.32L2305.83,4716.8L2298.78,4716.8L2298.78,4709.84L2315.96,4709.84L2315.96,4727.11Z" style="fill:white;fill-opacity:0.5;fill-rule:nonzero;"/>
                <path d="M2336.03,4732.88C2331.58,4732.88 2327.98,4731.48 2325.21,4728.68C2322.45,4725.88 2321.07,4722.15 2321.07,4717.49L2321.07,4716.63C2321.07,4713.51 2321.67,4710.72 2322.88,4708.27C2324.08,4705.81 2325.77,4703.9 2327.94,4702.54C2330.12,4701.17 2332.54,4700.49 2335.22,4700.49C2339.47,4700.49 2342.76,4701.85 2345.08,4704.56C2347.39,4707.27 2348.55,4711.11 2348.55,4716.08L2348.55,4718.91L2328.14,4718.91C2328.36,4721.48 2329.22,4723.53 2330.73,4725.03C2332.24,4726.53 2334.14,4727.28 2336.43,4727.28C2339.64,4727.28 2342.26,4725.98 2344.28,4723.38L2348.06,4726.99C2346.81,4728.86 2345.14,4730.31 2343.05,4731.33C2340.97,4732.36 2338.62,4732.88 2336.03,4732.88ZM2335.19,4706.12C2333.26,4706.12 2331.71,4706.79 2330.53,4708.14C2329.34,4709.48 2328.59,4711.36 2328.26,4713.77L2341.63,4713.77L2341.63,4713.25C2341.47,4710.9 2340.85,4709.12 2339.75,4707.92C2338.65,4706.72 2337.13,4706.12 2335.19,4706.12Z" style="fill:white;fill-opacity:0.5;fill-rule:nonzero;"/>
                <path d="M2365.21,4711.34L2371.16,4701.07L2378.95,4701.07L2369.4,4716.45L2379.27,4732.3L2371.53,4732.3L2365.3,4721.62L2359.09,4732.3L2351.3,4732.3L2361.17,4716.45L2351.64,4701.07L2359.38,4701.07L2365.21,4711.34Z" style="fill:white;fill-opacity:0.5;fill-rule:nonzero;"/>
                <path d="M2391.01,4729.46C2391.01,4730.29 2390.72,4731.03 2390.13,4731.68C2389.54,4732.33 2388.77,4732.66 2387.82,4732.66C2386.88,4732.66 2386.11,4732.33 2385.52,4731.68C2384.93,4731.03 2384.63,4730.29 2384.63,4729.46C2384.63,4728.64 2384.93,4727.9 2385.52,4727.25C2386.11,4726.6 2386.88,4726.27 2387.82,4726.27C2388.77,4726.27 2389.54,4726.6 2390.13,4727.25C2390.72,4727.9 2391.01,4728.64 2391.01,4729.46Z" style="fill:white;fill-opacity:0.6;fill-rule:nonzero;"/>
                <path d="M2420.75,4710.96C2420.08,4709.89 2419.11,4709.02 2417.83,4708.33C2416.55,4707.64 2415.16,4707.29 2413.66,4707.29C2412.04,4707.29 2410.59,4707.58 2409.28,4708.15C2407.98,4708.72 2406.87,4709.51 2405.94,4710.52C2405.02,4711.52 2404.31,4712.7 2403.82,4714.06C2403.32,4715.42 2403.08,4716.89 2403.08,4718.47C2403.08,4720.04 2403.32,4721.5 2403.82,4722.84C2404.31,4724.18 2405.01,4725.35 2405.91,4726.36C2406.82,4727.36 2407.92,4728.15 2409.22,4728.72C2410.53,4729.3 2411.98,4729.58 2413.6,4729.58C2415.37,4729.58 2416.87,4729.25 2418.09,4728.58C2419.32,4727.91 2420.32,4727.04 2421.11,4725.98L2424.12,4728.22C2422.94,4729.68 2421.49,4730.84 2419.78,4731.71C2418.06,4732.58 2416.01,4733.01 2413.6,4733.01C2411.35,4733.01 2409.32,4732.65 2407.51,4731.92C2405.7,4731.19 2404.15,4730.17 2402.87,4728.87C2401.59,4727.57 2400.59,4726.03 2399.88,4724.26C2399.17,4722.49 2398.82,4720.56 2398.82,4718.47C2398.82,4716.38 2399.17,4714.45 2399.88,4712.67C2400.59,4710.9 2401.59,4709.36 2402.87,4708.06C2404.15,4706.76 2405.7,4705.74 2407.51,4705.02C2409.32,4704.29 2411.35,4703.92 2413.6,4703.92C2415.45,4703.92 2417.34,4704.33 2419.25,4705.13C2421.16,4705.94 2422.7,4707.14 2423.89,4708.71L2420.75,4710.96Z" style="fill:white;fill-opacity:0.6;fill-rule:nonzero;"/>
                <path d="M2457.88,4718.47C2457.88,4720.56 2457.52,4722.49 2456.79,4724.26C2456.06,4726.03 2455.05,4727.57 2453.74,4728.87C2452.44,4730.17 2450.89,4731.19 2449.07,4731.92C2447.26,4732.65 2445.27,4733.01 2443.1,4733.01C2440.97,4733.01 2439,4732.65 2437.19,4731.92C2435.38,4731.19 2433.82,4730.17 2432.52,4728.87C2431.22,4727.57 2430.2,4726.03 2429.47,4724.26C2428.75,4722.49 2428.38,4720.56 2428.38,4718.47C2428.38,4716.38 2428.75,4714.45 2429.47,4712.67C2430.2,4710.9 2431.22,4709.36 2432.52,4708.06C2433.82,4706.76 2435.38,4705.74 2437.19,4705.02C2439,4704.29 2440.97,4703.92 2443.1,4703.92C2445.27,4703.92 2447.26,4704.29 2449.07,4705.02C2450.89,4705.74 2452.44,4706.76 2453.74,4708.06C2455.05,4709.36 2456.06,4710.9 2456.79,4712.67C2457.52,4714.45 2457.88,4716.38 2457.88,4718.47ZM2453.63,4718.47C2453.63,4716.93 2453.38,4715.48 2452.89,4714.12C2452.39,4712.76 2451.7,4711.58 2450.79,4710.57C2449.88,4709.57 2448.78,4708.77 2447.48,4708.18C2446.18,4707.59 2444.72,4707.29 2443.1,4707.29C2441.49,4707.29 2440.04,4707.59 2438.76,4708.18C2437.48,4708.77 2436.38,4709.57 2435.48,4710.57C2434.57,4711.58 2433.87,4712.76 2433.38,4714.12C2432.88,4715.48 2432.64,4716.93 2432.64,4718.47C2432.64,4720 2432.88,4721.45 2433.38,4722.81C2433.87,4724.17 2434.57,4725.35 2435.48,4726.36C2436.38,4727.36 2437.48,4728.15 2438.76,4728.72C2440.04,4729.3 2441.49,4729.58 2443.1,4729.58C2444.72,4729.58 2446.18,4729.3 2447.48,4728.72C2448.78,4728.15 2449.88,4727.36 2450.79,4726.36C2451.7,4725.35 2452.39,4724.17 2452.89,4722.81C2453.38,4721.45 2453.63,4720 2453.63,4718.47Z" style="fill:white;fill-opacity:0.6;fill-rule:nonzero;"/>
                <path d="M2470.48,4709.36C2471.26,4707.75 2472.48,4706.44 2474.11,4705.43C2475.75,4704.43 2477.57,4703.92 2479.58,4703.92C2480.33,4703.92 2481.11,4704 2481.92,4704.16C2482.72,4704.32 2483.51,4704.62 2484.28,4705.07C2485.05,4705.53 2485.76,4706.13 2486.41,4706.88C2487.06,4707.63 2487.62,4708.59 2488.1,4709.78C2489.04,4707.88 2490.33,4706.44 2491.97,4705.43C2493.6,4704.43 2495.55,4703.92 2497.79,4703.92C2501.3,4703.92 2503.93,4704.97 2505.68,4707.06C2507.44,4709.15 2508.32,4711.9 2508.32,4715.33L2508.32,4732.3L2504.3,4732.3L2504.3,4716.99C2504.3,4714.07 2503.75,4711.73 2502.67,4709.95C2501.59,4708.18 2499.74,4707.29 2497.14,4707.29C2495.68,4707.29 2494.45,4707.59 2493.45,4708.18C2492.44,4708.77 2491.63,4709.55 2491.02,4710.52C2490.41,4711.48 2489.97,4712.57 2489.69,4713.8C2489.41,4715.02 2489.28,4716.28 2489.28,4717.58L2489.28,4732.3L2485.26,4732.3L2485.26,4716.16C2485.26,4714.82 2485.16,4713.6 2484.96,4712.49C2484.76,4711.39 2484.42,4710.45 2483.93,4709.69C2483.43,4708.92 2482.75,4708.33 2481.89,4707.91C2481.02,4707.5 2479.92,4707.29 2478.58,4707.29C2477.63,4707.29 2476.67,4707.51 2475.71,4707.94C2474.74,4708.38 2473.88,4709.04 2473.11,4709.92C2472.34,4710.81 2471.72,4711.93 2471.24,4713.29C2470.77,4714.65 2470.54,4716.26 2470.54,4718.11L2470.54,4732.3L2466.51,4732.3L2466.51,4710.72C2466.51,4709.97 2466.49,4709.01 2466.46,4707.82C2466.42,4706.64 2466.36,4705.58 2466.28,4704.63L2470.12,4704.63C2470.2,4705.38 2470.26,4706.21 2470.3,4707.11C2470.34,4708.02 2470.36,4708.77 2470.36,4709.36L2470.48,4709.36Z" style="fill:white;fill-opacity:0.6;fill-rule:nonzero;"/>
            </g>
            <g transform="matrix(0.600405,0,0,1.01662,-24931.9,-10442.1)">
                <path d="M43414.9,16925.7C43414.9,16925.3 43414.3,16925 43413.7,16925L43411.2,16925C43410.5,16925 43410,16925.3 43410,16925.7L43410,16996.3C43410,16996.6 43410.5,16996.9 43411.2,16996.9L43413.7,16996.9C43414.3,16996.9 43414.9,16996.6 43414.9,16996.3L43414.9,16925.7Z" style="fill:white;fill-opacity:0.5;"/>
            </g>
            <g id="SmartDeFi" transform="matrix(0.315589,0,0,0.285619,614.119,6784.22)">
                <path id="underlay" d="M1499.78,57.82C1499.78,26.063 1474.11,0.28 1442.5,0.28L963.302,0.28C931.687,0.28 906.02,26.063 906.02,57.82C906.02,89.577 931.687,115.36 963.302,115.36L1442.5,115.36C1474.11,115.36 1499.78,89.577 1499.78,57.82Z" style="fill:white;fill-opacity:0.5;"/>
                <path d="M980.8,89C968.133,90.14 957.64,90.707 949.32,90.7C943.76,90.7 939.673,89.397 937.06,86.79C934.447,84.183 933.143,80.097 933.15,74.53L933.15,47.32C933.15,41.367 934.483,37.033 937.15,34.32C939.817,31.607 944.15,30.257 950.15,30.27L980.8,30.27L980.8,42.22L953.57,42.22C950.17,42.22 948.47,43.92 948.47,47.32L948.47,74.55C948.407,75.701 948.824,76.827 949.62,77.66C950.394,78.433 951.456,78.85 952.55,78.81L956.47,78.81C957.89,78.81 959.36,78.74 960.89,78.68L965.53,78.51C967.09,78.45 969.09,78.337 971.53,78.17L980.76,77.57L980.8,89Z" style="fill:rgb(9,12,18);fill-rule:nonzero;"/>
                <path d="M1045.05,89.87L997.82,89.87L997.82,30.3L1045.05,30.3L1045.05,42.22L1013.14,42.22L1013.14,53.71L1038.24,53.71L1038.24,65.62L1013.14,65.62L1013.14,78L1045.05,78L1045.05,89.87Z" style="fill:rgb(9,12,18);fill-rule:nonzero;"/>
                <path d="M1062.07,30.3L1097.81,30.3C1103.77,30.3 1108.1,31.65 1110.81,34.35C1113.52,37.05 1114.85,41.383 1114.81,47.35L1114.81,55C1114.81,59.713 1114.03,63.38 1112.47,66C1110.81,68.682 1108.11,70.562 1105.02,71.19L1115.66,89.91L1099.07,89.91L1089.3,72L1077.39,72L1077.39,89.87L1062.07,89.87L1062.07,30.3ZM1099.51,47.3C1099.51,43.9 1097.81,42.2 1094.41,42.2L1077.41,42.2L1077.41,60.09L1094.41,60.09C1097.81,60.09 1099.51,58.387 1099.51,54.98L1099.51,47.3Z" style="fill:rgb(9,12,18);fill-rule:nonzero;"/>
                <path d="M1162.48,89.87L1147.17,89.87L1147.17,42.22L1129.29,42.22L1129.29,30.3L1180.35,30.3L1180.35,42.22L1162.48,42.22L1162.48,89.87Z" style="fill:rgb(9,12,18);fill-rule:nonzero;"/>
                <path d="M1224.6,89.87L1194,89.87L1194,78L1201.66,78L1201.66,42.22L1194,42.22L1194,30.3L1224.63,30.3L1224.63,42.22L1216.97,42.22L1216.97,78L1224.63,78L1224.6,89.87Z" style="fill:rgb(9,12,18);fill-rule:nonzero;"/>
                <path d="M1257.79,89.87L1242.47,89.87L1242.47,30.3L1289.7,30.3L1289.7,42.22L1257.79,42.22L1257.79,56.22L1282.89,56.22L1282.89,68.17L1257.79,68.17L1257.79,89.87Z" style="fill:rgb(9,12,18);fill-rule:nonzero;"/>
                <path d="M1334,89.87L1303.37,89.87L1303.37,78L1311,78L1311,42.22L1303.34,42.22L1303.34,30.3L1334,30.3L1334,42.22L1326.34,42.22L1326.34,78L1334,78L1334,89.87Z" style="fill:rgb(9,12,18);fill-rule:nonzero;"/>
                <path d="M1399.05,89.87L1351.82,89.87L1351.82,30.3L1399.05,30.3L1399.05,42.22L1367.14,42.22L1367.14,53.71L1392.24,53.71L1392.24,65.62L1367.14,65.62L1367.14,78L1399.05,78L1399.05,89.87Z" style="fill:rgb(9,12,18);fill-rule:nonzero;"/>
                <path d="M1449.26,30.3C1455.67,30.3 1460.54,31.967 1463.85,35.3C1467.16,38.633 1468.83,43.5 1468.85,49.9L1468.85,70.3C1468.85,76.707 1467.18,81.57 1463.85,84.89C1460.52,88.21 1455.65,89.877 1449.26,89.89L1416.07,89.89L1416.07,30.3L1449.26,30.3ZM1453.51,49.88C1453.51,44.773 1450.96,42.22 1445.85,42.22L1431.39,42.22L1431.39,78L1445.85,78C1450.96,78 1453.52,75.447 1453.51,70.34L1453.51,49.88Z" style="fill:rgb(9,12,18);fill-rule:nonzero;"/>
                <path d="M1.44,90.21C30.6,91.81 50.347,92.61 60.68,92.61C60.87,92.625 61.061,92.632 61.252,92.632C65.339,92.632 68.702,89.269 68.702,85.182C68.702,84.991 68.695,84.8 68.68,84.61L68.68,70.26L31.93,70.26C20.763,70.26 12.647,67.73 7.58,62.67C2.513,57.61 -0.013,49.493 0,38.32L0,33.53C0,22.35 2.527,14.233 7.58,9.18C12.633,4.127 20.75,1.6 31.93,1.6L88,1.6L88,24L38.32,24C31.927,24 28.733,27.193 28.74,33.58L28.74,36.77C28.74,43.163 31.933,46.357 38.32,46.35L67.06,46.35C77.487,46.35 85.153,48.8 90.06,53.7C94.967,58.6 97.413,66.267 97.4,76.7L97.4,84.7C97.4,95.133 94.953,102.8 90.06,107.7C85.167,112.6 77.5,115.047 67.06,115.04C61.633,115.04 55.887,114.933 49.82,114.72L35.13,114C24.27,113.46 13.04,112.713 1.44,111.76L1.44,90.21Z" style="fill:rgb(57,142,246);fill-opacity:0.8;fill-rule:nonzero;"/>
                <path d="M162.39,27.14C171.01,27.14 177.677,30.333 182.39,36.72C187.247,33.442 192.613,30.989 198.27,29.46C203.231,28.026 208.357,27.246 213.52,27.14L215.12,27.14C222.36,27.14 228.16,29.323 232.52,33.69C236.88,38.057 239.04,43.857 239,51.09L239,113.37L211.09,113.37L211.09,55.88C211.091,55.836 211.092,55.792 211.092,55.748C211.092,52.758 208.631,50.298 205.642,50.298C205.594,50.298 205.547,50.299 205.5,50.3L204.7,50.3C199.907,50.3 193.787,51.363 186.34,53.49L186.34,113.37L158.4,113.37L158.4,55.88C158.401,55.836 158.402,55.792 158.402,55.748C158.402,52.758 155.941,50.298 152.952,50.298C152.904,50.298 152.857,50.299 152.81,50.3L152,50.3C147.207,50.3 141.087,51.363 133.64,53.49L133.64,113.37L105.7,113.37L105.7,28.74L130.45,28.74L132.05,36.74C136.796,33.565 141.99,31.118 147.46,29.48C151.775,28.096 156.261,27.315 160.79,27.16L162.39,27.14Z" style="fill:rgb(57,142,246);fill-opacity:0.8;fill-rule:nonzero;"/>
                <path d="M254.2,30.34C271.693,28.326 289.282,27.258 306.89,27.14C314.13,27.14 319.93,29.323 324.29,33.69C328.65,38.057 330.833,43.857 330.84,51.09L330.84,113.37L306.09,113.37L304.49,105.37C299.749,108.55 294.558,111.001 289.09,112.64C284.774,114.039 280.284,114.833 275.75,115L270.16,115C262.92,115 257.12,112.82 252.76,108.46C248.4,104.1 246.217,98.28 246.21,91L246.21,83.83C246.21,76.59 248.393,70.787 252.76,66.42C257.127,62.053 262.927,59.873 270.16,59.88L302.9,59.88L302.9,53.49C302.901,53.45 302.901,53.409 302.901,53.369C302.901,50.368 300.432,47.899 297.431,47.899C297.391,47.899 297.35,47.899 297.31,47.9C290.39,47.9 282.753,48.233 274.4,48.9C266.047,49.567 259.313,50.033 254.2,50.3L254.2,30.34ZM283.74,92.61C290.247,92.471 296.7,91.397 302.9,89.42L302.9,79.84L279.75,79.84C279.699,79.839 279.649,79.838 279.598,79.838C276.614,79.838 274.158,82.294 274.158,85.278C274.158,85.325 274.159,85.373 274.16,85.42L274.16,87C274.159,87.047 274.158,87.095 274.158,87.142C274.158,90.132 276.618,92.592 279.608,92.592C279.655,92.592 279.703,92.591 279.75,92.59L283.74,92.61Z" style="fill:rgb(57,142,246);fill-opacity:0.8;fill-rule:nonzero;"/>
                <path d="M389,51.89C381.819,51.998 374.742,53.631 368.24,56.68L368.24,113.37L340.26,113.37L340.26,28.74L365,28.74L366.59,39.12C375.75,31.12 385.33,27.12 395.33,27.12L402.52,27.12L402.52,51.89L389,51.89Z" style="fill:rgb(57,142,246);fill-opacity:0.8;fill-rule:nonzero;"/>
                <path d="M472.15,113.37C462.071,114.43 451.945,114.974 441.81,115C434.57,115 428.767,112.82 424.4,108.46C420.033,104.1 417.853,98.28 417.86,91L417.86,50.3L408.28,50.3L408.28,28.74L417.86,28.74L421.05,9.58L445.8,9.58L445.8,28.74L465.8,28.74L465.8,50.3L445.8,50.3L445.8,87C445.799,87.04 445.799,87.081 445.799,87.121C445.799,90.122 448.268,92.591 451.269,92.591C451.309,92.591 451.35,92.591 451.39,92.59L472.15,92.59L472.15,113.37Z" style="fill:rgb(57,142,246);fill-opacity:0.8;fill-rule:nonzero;"/>
                <path d="M544,1.6C556,1.6 565.127,4.713 571.38,10.94C577.633,17.167 580.747,26.293 580.72,38.32L580.72,76.64C580.72,88.64 577.607,97.77 571.38,104.03C565.153,110.29 556.027,113.403 544,113.37L481.72,113.37L481.72,1.6L544,1.6ZM552,38.32C552,28.74 547.203,23.967 537.61,24L510.47,24L510.47,91L537.61,91C547.203,91 552,86.213 552,76.64L552,38.32Z" style="fill:white;fill-opacity:0.5;fill-rule:nonzero;"/>
                <path d="M668.54,111.77C649.977,113.801 631.323,114.879 612.65,115C605.41,115 599.61,112.82 595.25,108.46C590.89,104.1 588.707,98.28 588.7,91L588.7,52.69C588.7,44.69 590.963,38.437 595.49,33.93C600.017,29.423 606.27,27.16 614.25,27.14L646.19,27.14C654.19,27.14 660.443,29.403 664.95,33.93C669.457,38.457 671.717,44.71 671.73,52.69L671.73,82.23L616.65,82.23L616.65,88.62C616.649,88.667 616.648,88.714 616.648,88.762C616.648,91.751 619.108,94.212 622.098,94.212C622.142,94.212 622.186,94.211 622.23,94.21C632.77,94.21 648.207,93.41 668.54,91.81L668.54,111.77ZM623,47.1C618.74,47.1 616.613,49.23 616.62,53.49L616.62,62.27L643.76,62.27L643.76,53.49C643.76,49.23 641.63,47.1 637.37,47.1L623,47.1Z" style="fill:white;fill-opacity:0.5;fill-rule:nonzero;"/>
                <path d="M708.46,113.37L679.72,113.37L679.72,1.6L768.33,1.6L768.33,24L708.46,24L708.46,50.3L755.56,50.3L755.56,72.65L708.46,72.65L708.46,113.37Z" style="fill:white;fill-opacity:0.5;fill-rule:nonzero;"/>
                <path d="M809.85,31.93L809.85,113.37L781.91,113.37L781.91,53.49L769.91,53.49L769.91,31.93L809.85,31.93ZM781.91,0L809.85,0L809.85,22.35L781.91,22.35L781.91,0Z" style="fill:white;fill-opacity:0.5;fill-rule:nonzero;"/>
                <path d="M829.92,96.68L829.92,99.44L824.59,99.44L824.59,113.34L821.28,113.34L821.28,99.44L816,99.44L816,96.68L829.92,96.68ZM847.92,113.34L847.31,103.54C847.25,102.26 847.25,100.67 847.19,98.89L847,98.89C846.58,100.36 846.08,102.32 845.59,103.89L842.59,113.14L839.16,113.14L836.16,103.65C835.86,102.36 835.37,100.4 835,98.93L834.82,98.93C834.82,100.46 834.75,102.05 834.69,103.58L834.08,113.38L830.9,113.38L832.12,96.72L837.12,96.72L840,104.87C840.37,106.16 840.67,107.38 841.1,109.1L841.16,109.1C841.59,107.57 841.96,106.16 842.33,104.93L845.21,96.72L849.98,96.72L851.27,113.38L847.92,113.34Z" style="fill:white;fill-opacity:0.5;fill-rule:nonzero;"/>
            </g>
        </g>
    </g>
</svg>
